<?xml version="1.0" encoding="UTF-8"?>
<svg id="Capa_2" data-name="Capa 2" xmlns="http://www.w3.org/2000/svg" viewBox="0 0 424.53 508.57">
  <g id="Capa_1-2" data-name="Capa 1">
    <g>
      <path d="m424.53,5v4c-3.96-.75-3.81,1.88-3.81,4.53.01,57.13.03,114.27-.06,171.4,0,3,.77,4.75,3.87,5.07v3c-3.14-.32-3.89,1.29-3.86,4.17.12,11.46.03,22.93.03,34.4,0,25.42,0,50.85,0,76.27,0,2.67-.5,5.7,3.82,5.16v3c-4.04.27-3.83,3.12-3.83,6.05.03,53.48.02,106.96.02,160.45,0,3.67.11,7.34-.03,10.99-.11,2.86,1,4.04,3.84,3.51v4c-1.64-.16-3.29-.45-4.93-.45-40.49-.03-80.98,0-121.47-.08-4.24,0-7.8-.03-6.77,5.83.22,1.24-.27,2.4-1.88,2.27-1.22-.1-1.79-1.03-1.6-2.1,1.25-6.85-3.39-5.95-7.57-5.95-90.98.03-181.96.03-272.94.02-8.25,0-7.33.79-7.33-7.1C.01,333.13.01,172.83.03,12.54c0-7.73-.86-7.05,6.88-7.05,91.65-.01,183.29-.02,274.94.04,4.01,0,7.19-.16,5.68-5.52h4c-1.02,4.55,1.02,5.57,5.33,5.55,40.91-.14,81.83-.08,122.74-.1,1.64,0,3.28-.29,4.92-.45ZM145.53,497.11c45.5,0,91-.03,136.5.06,3.85,0,6.66-.22,5.84-5.19-.21-1.27-.11-2.87,1.86-2.83,1.66.03,1.82,1.41,1.62,2.53-.92,5.15,1.99,5.49,6.03,5.48,38-.1,76-.14,114,.06,4.86.03,6.09-1.39,6.07-6.14-.16-55.83-.1-111.67-.11-167.5,0-6.89-.02-6.89-6.88-7.73-39.79-4.88-65.47-47.17-51.01-84.66,9.17-23.78,26.77-37.59,52.13-41.08,4.01-.55,5.91-1.51,5.89-6.28-.2-56.5-.16-113-.07-169.5,0-3.88-.69-5.55-5.13-5.53-38.67.18-77.33.15-116,.06-3.48,0-5.45.6-4.95,4.6.16,1.3.61,3.4-1.72,3.38-2.29-.02-1.92-2.08-1.74-3.4.55-4.03-1.45-4.67-4.91-4.6-9.33.18-18.67.06-28,.06-81.83,0-163.67.04-245.5-.11-4.81,0-6.24,1.25-6.1,6.09.34,11.82.3,23.67.01,35.49-.1,4.31.98,5.72,5.51,5.68,22.33-.24,44.67-.08,67-.12,13.38-.03,26.58,1.39,39.67,4.1,113.16,23.46,182.21,140.72,147.84,251.14-25.77,82.79-101.45,138.7-188.08,138.92-22,.06-44,.12-66-.08-4.4-.04-6.11.9-5.96,5.72.36,11.82.35,23.67-.01,35.49-.15,4.94,1.48,6.02,6.19,6,45.33-.17,90.66-.1,136-.1Zm-44.67-307.68c29.83,0,59.66,0,89.49,0,9.82,0,19.18,2.13,28.02,6.38,26.48,12.74,40.73,42.23,34.32,70.88-6.51,29.11-32.13,49.85-62.01,49.89-60.66.08-121.32.06-181.98-.07-4.12,0-5.34,1.05-5.33,5.26.16,39.83.17,79.66,0,119.49-.02,4.42,1.18,5.63,5.58,5.59,20.5-.23,41-.13,61.49-.09,12.69.03,25.38-.44,37.8-2.99,72.7-14.89,124.1-56.43,148.9-126.37,24.59-69.34,12.06-134.11-35.53-190.53-35.09-41.6-80.89-63.74-135.38-67.06-25.63-1.56-51.32-.21-76.97-.69-4.5-.09-5.92,1.06-5.9,5.76.19,39.66.17,79.33,0,118.99-.02,4.32,1,5.67,5.49,5.64,30.66-.2,61.33-.1,91.99-.09Zm67.34,123.58c.03-.37.06-.75.09-1.12-3.23-1.68-6.48-3.33-9.69-5.05-.83-.45-1.92-.99-1.28-2.26.27-.53,1.1-1.33,1.3-1.24,4.16,1.98,10.61,3.19,11.81,6.37,1.6,4.22,3.69,3.03,6.01,3.27,2.66.27,5.34-.84,7.83-.77,4.54.12,4.7-2.14,4.69-5.52-.06-35.48-.03-70.96-.03-106.44,0-1.33,0-2.67-.06-4-.05-1.34-.7-2.09-2.13-2.25-2.13-.24-4.34-1.19-6.33-.84-3.44.61-8.86-3.22-9.86,3.85-.06.39-1.09.66-1.68.96-2.68,1.33-5.37,2.64-8.05,3.96-1.16.57-2.38,1.62-3.37-.19-1.01-1.86.65-2.28,1.73-2.87,3.07-1.69,6.19-3.3,10.51-5.6-2.52-.15-3.5-.25-4.47-.25-52.31,0-104.61.04-156.92-.1-4.2-.01-4.89,1.54-4.88,5.22.1,36.31.14,72.63-.07,108.94-.03,4.87,1.39,6.05,6.14,6.04,51.14-.17,102.28-.11,153.42-.1,1.76,0,3.52,0,5.28,0Zm249.15-59.71c0-18.14,0-36.29,0-54.43,0-6.12-.18-6.26-6.15-5.39-30.16,4.42-52.21,29.51-52.24,59.47-.03,30.12,22.33,55.41,52.62,59.74,4.23.6,5.93-.19,5.87-4.95-.25-18.14-.1-36.29-.1-54.43Zm-224.96-.81c0,18.15.11,36.3-.08,54.45-.05,4.26,1.22,5.45,5.45,4.97,29.4-3.32,52.31-29.29,52.17-59.38-.13-29.43-23.31-55.32-52.11-58.42-4.13-.45-5.57.59-5.52,4.93.2,17.81.08,35.63.09,53.45Z"/>
      <path d="m19.94,236.93c0,1.67-.23,3.37.06,4.99.39,2.2-1.59,5.63,2.02,6.29,3.42.63,6.85,1.13,9.13-3.51,4.08-8.33,12.93-11.84,21.93-9.73,8.22,1.93,14.36,9.52,14.61,18.07.27,9.13-4.96,16.65-13.5,19.39-8.95,2.88-18.89-.7-22.95-9.27-2.23-4.69-5.52-3.87-9.04-3.8-2.54.05-2.17,2.09-2.19,3.68-.06,5.49,0,10.99-.09,16.48-.02,1.34.51,3.4-1.87,3.28-1.95-.1-1.5-1.9-1.5-3.12-.04-17.15-.04-34.3-.01-51.45,0-1.22-.43-3.02,1.52-3.1,2.37-.1,1.81,1.96,1.86,3.31.11,2.83.03,5.66.04,8.49Zm44.39,16.8c-.12-8.89-7.67-16.18-16.5-15.92-8.77.26-15.74,7.46-15.68,16.2.06,8.65,7.32,15.93,15.96,16,8.76.07,16.34-7.53,16.23-16.28Zm-40.04,2.19c1.59-.35,4.15.71,4.14-2.11,0-2.8-2.53-2.02-4.15-2.01-1.59,0-4.11-.89-4.11,2.01,0,2.91,2.53,1.75,4.11,2.11Z"/>
      <path d="m148.94,210.5c-.43.65-.75,1.21-1.14,1.7-2.17,2.74-4.37,5.45-6.52,8.2-.77.98-1.47,1.86-2.82.8-1.04-.81-.84-1.65-.23-2.58,2.09-3.22,4.45-6.23,7.16-8.96.6-.6,1.22-1.25,2.11-.68.52.34.89.92,1.43,1.51Z"/>
      <path d="m128.71,263.13c-.13-2.48-.14-3.71,1.4-3.95,1.35-.21,1.61.86,1.84,1.83.8,3.37,1.58,6.75,2.37,10.12.24,1.03.24,2.03-.91,2.49-1.54.62-2.16-.52-2.47-1.65-.92-3.34-1.7-6.71-2.23-8.85Z"/>
      <path d="m148.79,295.16c-.4.61-.66,1.23-1.1,1.66-.78.76-1.55.34-2.1-.33-2.51-3.08-5-6.18-7.45-9.31-.54-.69-.75-1.56.08-2.18.49-.36,1.56-.81,1.69-.66,2.98,3.52,5.88,7.11,8.88,10.82Z"/>
      <path d="m128.69,242.81c.6-2.38,1.36-5.58,2.24-8.76.31-1.13.92-2.27,2.45-1.72,1.52.55,1.1,1.76.82,2.91-.73,3.05-1.42,6.1-2.16,9.14-.26,1.07-.27,2.57-1.9,2.38-1.91-.22-1.49-1.81-1.45-3.96Z"/>
    </g>
  </g>
</svg>